<?xml version="1.0" encoding="UTF-8"?>
<svg xmlns="http://www.w3.org/2000/svg" viewBox="0 0 178.76 8.85">
  <path fill="#0028e2" fill-rule="nonzero" d="M4.796 8.756 L3.036 5.698 L2.079 5.698 L2.079 8.756 L0.825 8.756 L0.825 1.111 L3.465 1.111 C4.052 1.111 4.547 1.214 4.950 1.419 C5.361 1.624 5.665 1.899 5.863 2.244 C6.068 2.589 6.171 2.974 6.171 3.399 C6.171 3.898 6.024 4.352 5.731 4.763 C5.445 5.166 5.001 5.441 4.400 5.588 L6.292 8.756 L4.796 8.756 Z M2.079 4.697 L3.465 4.697 C3.934 4.697 4.286 4.580 4.521 4.345 C4.763 4.110 4.884 3.795 4.884 3.399 C4.884 3.003 4.767 2.695 4.532 2.475 C4.297 2.248 3.942 2.134 3.465 2.134 L2.079 2.134 L2.079 4.697 Z M9.229 1.111 L9.229 8.756 L7.975 8.756 L7.975 1.111 L9.229 1.111 Z M15.168 4.829 C15.578 4.902 15.927 5.119 16.213 5.478 C16.499 5.837 16.642 6.244 16.642 6.699 C16.642 7.088 16.539 7.440 16.334 7.755 C16.136 8.063 15.846 8.309 15.465 8.492 C15.083 8.668 14.640 8.756 14.134 8.756 L11.076 8.756 L11.076 1.111 L13.991 1.111 C14.511 1.111 14.959 1.199 15.333 1.375 C15.707 1.551 15.989 1.789 16.180 2.090 C16.370 2.383 16.466 2.713 16.466 3.080 C16.466 3.520 16.348 3.887 16.114 4.180 C15.879 4.473 15.564 4.690 15.168 4.829 Z M12.330 4.323 L13.881 4.323 C14.291 4.323 14.610 4.231 14.838 4.048 C15.072 3.857 15.190 3.586 15.190 3.234 C15.190 2.889 15.072 2.622 14.838 2.431 C14.610 2.233 14.291 2.134 13.881 2.134 L12.330 2.134 L12.330 4.323 Z M14.024 7.733 C14.449 7.733 14.783 7.630 15.025 7.425 C15.267 7.220 15.388 6.934 15.388 6.567 C15.388 6.193 15.259 5.896 15.003 5.676 C14.746 5.456 14.405 5.346 13.980 5.346 L12.330 5.346 L12.330 7.733 L14.024 7.733 Z M25.915 4.246 L25.915 5.302 L21.394 5.302 L21.394 4.246 L25.915 4.246 Z M34.925 8.756 L33.165 5.698 L32.208 5.698 L32.208 8.756 L30.954 8.756 L30.954 1.111 L33.594 1.111 C34.180 1.111 34.675 1.214 35.079 1.419 C35.489 1.624 35.794 1.899 35.992 2.244 C36.197 2.589 36.300 2.974 36.300 3.399 C36.300 3.898 36.153 4.352 35.860 4.763 C35.574 5.166 35.130 5.441 34.529 5.588 L36.421 8.756 L34.925 8.756 Z M32.208 4.697 L33.594 4.697 C34.063 4.697 34.415 4.580 34.650 4.345 C34.892 4.110 35.013 3.795 35.013 3.399 C35.013 3.003 34.895 2.695 34.661 2.475 C34.426 2.248 34.070 2.134 33.594 2.134 L32.208 2.134 L32.208 4.697 Z M43.659 5.577 C43.659 5.804 43.644 6.010 43.615 6.193 L38.984 6.193 C39.021 6.677 39.200 7.066 39.523 7.359 C39.846 7.652 40.242 7.799 40.711 7.799 C41.386 7.799 41.862 7.517 42.141 6.952 L43.494 6.952 C43.311 7.509 42.977 7.968 42.493 8.327 C42.016 8.679 41.422 8.855 40.711 8.855 C40.132 8.855 39.611 8.727 39.149 8.470 C38.694 8.206 38.335 7.839 38.071 7.370 C37.814 6.893 37.686 6.343 37.686 5.720 C37.686 5.097 37.811 4.550 38.060 4.081 C38.317 3.604 38.672 3.238 39.127 2.981 C39.589 2.724 40.117 2.596 40.711 2.596 C41.283 2.596 41.793 2.721 42.240 2.970 C42.687 3.219 43.036 3.571 43.285 4.026 C43.534 4.473 43.659 4.990 43.659 5.577 Z M42.350 5.181 C42.343 4.719 42.178 4.349 41.855 4.070 C41.532 3.791 41.133 3.652 40.656 3.652 C40.223 3.652 39.853 3.791 39.545 4.070 C39.237 4.341 39.054 4.712 38.995 5.181 L42.350 5.181 Z M46.347 0.616 L46.347 8.756 L45.093 8.756 L45.093 0.616 L46.347 0.616 Z M53.748 5.577 C53.748 5.804 53.734 6.010 53.704 6.193 L49.073 6.193 C49.110 6.677 49.290 7.066 49.612 7.359 C49.935 7.652 50.331 7.799 50.800 7.799 C51.475 7.799 51.952 7.517 52.230 6.952 L53.583 6.952 C53.400 7.509 53.066 7.968 52.582 8.327 C52.106 8.679 51.512 8.855 50.800 8.855 C50.221 8.855 49.700 8.727 49.238 8.470 C48.784 8.206 48.424 7.839 48.160 7.370 C47.904 6.893 47.775 6.343 47.775 5.720 C47.775 5.097 47.900 4.550 48.149 4.081 C48.406 3.604 48.762 3.238 49.216 2.981 C49.678 2.724 50.206 2.596 50.800 2.596 C51.372 2.596 51.882 2.721 52.329 2.970 C52.777 3.219 53.125 3.571 53.374 4.026 C53.624 4.473 53.748 4.990 53.748 5.577 Z M52.439 5.181 C52.432 4.719 52.267 4.349 51.944 4.070 C51.622 3.791 51.222 3.652 50.745 3.652 C50.313 3.652 49.942 3.791 49.634 4.070 C49.326 4.341 49.143 4.712 49.084 5.181 L52.439 5.181 Z M57.525 7.634 L59.241 2.695 L60.572 2.695 L58.262 8.756 L56.766 8.756 L54.467 2.695 L55.809 2.695 L57.525 7.634 Z M67.275 5.577 C67.275 5.804 67.261 6.010 67.231 6.193 L62.600 6.193 C62.637 6.677 62.817 7.066 63.139 7.359 C63.462 7.652 63.858 7.799 64.327 7.799 C65.002 7.799 65.479 7.517 65.757 6.952 L67.110 6.952 C66.927 7.509 66.593 7.968 66.109 8.327 C65.633 8.679 65.039 8.855 64.327 8.855 C63.748 8.855 63.227 8.727 62.765 8.470 C62.311 8.206 61.951 7.839 61.687 7.370 C61.431 6.893 61.302 6.343 61.302 5.720 C61.302 5.097 61.427 4.550 61.676 4.081 C61.933 3.604 62.289 3.238 62.743 2.981 C63.205 2.724 63.733 2.596 64.327 2.596 C64.899 2.596 65.409 2.721 65.856 2.970 C66.304 3.219 66.652 3.571 66.901 4.026 C67.151 4.473 67.275 4.990 67.275 5.577 Z M65.966 5.181 C65.959 4.719 65.794 4.349 65.471 4.070 C65.149 3.791 64.749 3.652 64.272 3.652 C63.840 3.652 63.469 3.791 63.161 4.070 C62.853 4.341 62.670 4.712 62.611 5.181 L65.966 5.181 Z M65.427 1.067 L62.996 2.266 L62.996 1.342 L65.427 0.000 L65.427 1.067 Z M71.349 5.698 C71.349 5.089 71.473 4.550 71.723 4.081 C71.979 3.612 72.324 3.249 72.757 2.992 C73.197 2.728 73.684 2.596 74.220 2.596 C74.616 2.596 75.004 2.684 75.386 2.860 C75.774 3.029 76.082 3.256 76.310 3.542 L76.310 0.616 L77.575 0.616 L77.575 8.756 L76.310 8.756 L76.310 7.843 C76.104 8.136 75.818 8.378 75.452 8.569 C75.092 8.760 74.678 8.855 74.209 8.855 C73.681 8.855 73.197 8.723 72.757 8.459 C72.324 8.188 71.979 7.814 71.723 7.337 C71.473 6.853 71.349 6.307 71.349 5.698 Z M76.310 5.720 C76.310 5.302 76.222 4.939 76.046 4.631 C75.877 4.323 75.653 4.088 75.375 3.927 C75.096 3.766 74.795 3.685 74.473 3.685 C74.150 3.685 73.849 3.766 73.571 3.927 C73.292 4.081 73.065 4.312 72.889 4.620 C72.720 4.921 72.636 5.280 72.636 5.698 C72.636 6.116 72.720 6.483 72.889 6.798 C73.065 7.113 73.292 7.355 73.571 7.524 C73.857 7.685 74.157 7.766 74.473 7.766 C74.795 7.766 75.096 7.685 75.375 7.524 C75.653 7.363 75.877 7.128 76.046 6.820 C76.222 6.505 76.310 6.138 76.310 5.720 Z M79.620 1.111 L80.984 1.111 L79.829 3.729 L78.949 3.729 L79.620 1.111 Z M83.540 1.111 L83.540 8.756 L82.286 8.756 L82.286 1.111 L83.540 1.111 Z M84.968 5.698 C84.968 5.089 85.093 4.550 85.342 4.081 C85.599 3.612 85.944 3.249 86.376 2.992 C86.816 2.728 87.304 2.596 87.839 2.596 C88.235 2.596 88.624 2.684 89.005 2.860 C89.394 3.029 89.702 3.256 89.929 3.542 L89.929 0.616 L91.194 0.616 L91.194 8.756 L89.929 8.756 L89.929 7.843 C89.724 8.136 89.438 8.378 89.071 8.569 C88.712 8.760 88.298 8.855 87.828 8.855 C87.300 8.855 86.816 8.723 86.376 8.459 C85.944 8.188 85.599 7.814 85.342 7.337 C85.093 6.853 84.968 6.307 84.968 5.698 Z M89.929 5.720 C89.929 5.302 89.841 4.939 89.665 4.631 C89.497 4.323 89.273 4.088 88.994 3.927 C88.716 3.766 88.415 3.685 88.092 3.685 C87.770 3.685 87.469 3.766 87.190 3.927 C86.912 4.081 86.684 4.312 86.508 4.620 C86.340 4.921 86.255 5.280 86.255 5.698 C86.255 6.116 86.340 6.483 86.508 6.798 C86.684 7.113 86.912 7.355 87.190 7.524 C87.476 7.685 87.777 7.766 88.092 7.766 C88.415 7.766 88.716 7.685 88.994 7.524 C89.273 7.363 89.497 7.128 89.665 6.820 C89.841 6.505 89.929 6.138 89.929 5.720 Z M98.596 5.577 C98.596 5.804 98.582 6.010 98.552 6.193 L93.921 6.193 C93.958 6.677 94.138 7.066 94.460 7.359 C94.783 7.652 95.179 7.799 95.648 7.799 C96.323 7.799 96.800 7.517 97.078 6.952 L98.431 6.952 C98.248 7.509 97.914 7.968 97.430 8.327 C96.954 8.679 96.360 8.855 95.648 8.855 C95.069 8.855 94.548 8.727 94.086 8.470 C93.632 8.206 93.272 7.839 93.008 7.370 C92.752 6.893 92.623 6.343 92.623 5.720 C92.623 5.097 92.748 4.550 92.997 4.081 C93.254 3.604 93.610 3.238 94.064 2.981 C94.526 2.724 95.054 2.596 95.648 2.596 C96.220 2.596 96.730 2.721 97.177 2.970 C97.625 3.219 97.973 3.571 98.222 4.026 C98.472 4.473 98.596 4.990 98.596 5.577 Z M97.287 5.181 C97.280 4.719 97.115 4.349 96.792 4.070 C96.470 3.791 96.070 3.652 95.593 3.652 C95.161 3.652 94.790 3.791 94.482 4.070 C94.174 4.341 93.991 4.712 93.932 5.181 L97.287 5.181 Z M103.088 2.596 C103.565 2.596 103.990 2.695 104.364 2.893 C104.746 3.091 105.043 3.384 105.255 3.773 C105.468 4.162 105.574 4.631 105.574 5.181 L105.574 8.756 L104.331 8.756 L104.331 5.368 C104.331 4.825 104.196 4.411 103.924 4.125 C103.653 3.832 103.283 3.685 102.813 3.685 C102.344 3.685 101.970 3.832 101.691 4.125 C101.420 4.411 101.284 4.825 101.284 5.368 L101.284 8.756 L100.030 8.756 L100.030 2.695 L101.284 2.695 L101.284 3.388 C101.490 3.139 101.750 2.944 102.065 2.805 C102.388 2.666 102.729 2.596 103.088 2.596 Z M108.837 3.718 L108.837 7.073 C108.837 7.300 108.888 7.465 108.991 7.568 C109.101 7.663 109.284 7.711 109.541 7.711 L110.311 7.711 L110.311 8.756 L109.321 8.756 C108.756 8.756 108.324 8.624 108.023 8.360 C107.722 8.096 107.572 7.667 107.572 7.073 L107.572 3.718 L106.857 3.718 L106.857 2.695 L107.572 2.695 L107.572 1.188 L108.837 1.188 L108.837 2.695 L110.311 2.695 L110.311 3.718 L108.837 3.718 Z M112.305 1.892 C112.077 1.892 111.887 1.815 111.733 1.661 C111.579 1.507 111.502 1.316 111.502 1.089 C111.502 0.862 111.579 0.671 111.733 0.517 C111.887 0.363 112.077 0.286 112.305 0.286 C112.525 0.286 112.712 0.363 112.866 0.517 C113.020 0.671 113.097 0.862 113.097 1.089 C113.097 1.316 113.020 1.507 112.866 1.661 C112.712 1.815 112.525 1.892 112.305 1.892 Z M112.921 2.695 L112.921 8.756 L111.667 8.756 L111.667 2.695 L112.921 2.695 Z M116.230 3.718 L116.230 7.073 C116.230 7.300 116.282 7.465 116.384 7.568 C116.494 7.663 116.678 7.711 116.934 7.711 L117.704 7.711 L117.704 8.756 L116.714 8.756 C116.150 8.756 115.717 8.624 115.416 8.360 C115.116 8.096 114.965 7.667 114.965 7.073 L114.965 3.718 L114.250 3.718 L114.250 2.695 L114.965 2.695 L114.965 1.188 L116.230 1.188 L116.230 2.695 L117.704 2.695 L117.704 3.718 L116.230 3.718 Z M124.615 5.577 C124.615 5.804 124.600 6.010 124.571 6.193 L119.940 6.193 C119.977 6.677 120.156 7.066 120.479 7.359 C120.802 7.652 121.198 7.799 121.667 7.799 C122.342 7.799 122.818 7.517 123.097 6.952 L124.450 6.952 C124.267 7.509 123.933 7.968 123.449 8.327 C122.972 8.679 122.378 8.855 121.667 8.855 C121.088 8.855 120.567 8.727 120.105 8.470 C119.650 8.206 119.291 7.839 119.027 7.370 C118.770 6.893 118.642 6.343 118.642 5.720 C118.642 5.097 118.767 4.550 119.016 4.081 C119.273 3.604 119.628 3.238 120.083 2.981 C120.545 2.724 121.073 2.596 121.667 2.596 C122.239 2.596 122.749 2.721 123.196 2.970 C123.643 3.219 123.992 3.571 124.241 4.026 C124.490 4.473 124.615 4.990 124.615 5.577 Z M123.306 5.181 C123.299 4.719 123.134 4.349 122.811 4.070 C122.488 3.791 122.089 3.652 121.612 3.652 C121.179 3.652 120.809 3.791 120.501 4.070 C120.193 4.341 120.010 4.712 119.951 5.181 L123.306 5.181 Z M122.767 1.067 L120.336 2.266 L120.336 1.342 L122.767 0.000 L122.767 1.067 Z M133.198 4.829 C133.609 4.902 133.957 5.119 134.243 5.478 C134.529 5.837 134.672 6.244 134.672 6.699 C134.672 7.088 134.570 7.440 134.364 7.755 C134.166 8.063 133.877 8.309 133.495 8.492 C133.114 8.668 132.670 8.756 132.164 8.756 L129.106 8.756 L129.106 1.111 L132.021 1.111 C132.542 1.111 132.989 1.199 133.363 1.375 C133.737 1.551 134.020 1.789 134.210 2.090 C134.401 2.383 134.496 2.713 134.496 3.080 C134.496 3.520 134.379 3.887 134.144 4.180 C133.910 4.473 133.594 4.690 133.198 4.829 Z M130.360 4.323 L131.911 4.323 C132.322 4.323 132.641 4.231 132.868 4.048 C133.103 3.857 133.220 3.586 133.220 3.234 C133.220 2.889 133.103 2.622 132.868 2.431 C132.641 2.233 132.322 2.134 131.911 2.134 L130.360 2.134 L130.360 4.323 Z M132.054 7.733 C132.480 7.733 132.813 7.630 133.055 7.425 C133.297 7.220 133.418 6.934 133.418 6.567 C133.418 6.193 133.290 5.896 133.033 5.676 C132.777 5.456 132.436 5.346 132.010 5.346 L130.360 5.346 L130.360 7.733 L132.054 7.733 Z M135.817 5.698 C135.817 5.089 135.942 4.550 136.191 4.081 C136.448 3.612 136.792 3.249 137.225 2.992 C137.665 2.728 138.149 2.596 138.677 2.596 C139.154 2.596 139.568 2.691 139.920 2.882 C140.279 3.065 140.565 3.296 140.778 3.575 L140.778 2.695 L142.043 2.695 L142.043 8.756 L140.778 8.756 L140.778 7.854 C140.565 8.140 140.276 8.378 139.909 8.569 C139.542 8.760 139.124 8.855 138.655 8.855 C138.134 8.855 137.658 8.723 137.225 8.459 C136.792 8.188 136.448 7.814 136.191 7.337 C135.942 6.853 135.817 6.307 135.817 5.698 Z M140.778 5.720 C140.778 5.302 140.690 4.939 140.514 4.631 C140.345 4.323 140.122 4.088 139.843 3.927 C139.564 3.766 139.264 3.685 138.941 3.685 C138.618 3.685 138.318 3.766 138.039 3.927 C137.760 4.081 137.533 4.312 137.357 4.620 C137.188 4.921 137.104 5.280 137.104 5.698 C137.104 6.116 137.188 6.483 137.357 6.798 C137.533 7.113 137.760 7.355 138.039 7.524 C138.325 7.685 138.626 7.766 138.941 7.766 C139.264 7.766 139.564 7.685 139.843 7.524 C140.122 7.363 140.345 7.128 140.514 6.820 C140.690 6.505 140.778 6.138 140.778 5.720 Z M146.948 2.596 C147.425 2.596 147.850 2.695 148.224 2.893 C148.606 3.091 148.903 3.384 149.115 3.773 C149.328 4.162 149.434 4.631 149.434 5.181 L149.434 8.756 L148.191 8.756 L148.191 5.368 C148.191 4.825 148.056 4.411 147.784 4.125 C147.513 3.832 147.143 3.685 146.673 3.685 C146.204 3.685 145.830 3.832 145.551 4.125 C145.280 4.411 145.144 4.825 145.144 5.368 L145.144 8.756 L143.890 8.756 L143.890 2.695 L145.144 2.695 L145.144 3.388 C145.350 3.139 145.610 2.944 145.925 2.805 C146.248 2.666 146.589 2.596 146.948 2.596 Z M150.816 5.720 C150.816 5.097 150.940 4.550 151.190 4.081 C151.446 3.604 151.798 3.238 152.246 2.981 C152.693 2.724 153.206 2.596 153.786 2.596 C154.519 2.596 155.124 2.772 155.601 3.124 C156.085 3.469 156.411 3.964 156.580 4.609 L155.227 4.609 C155.117 4.308 154.941 4.074 154.699 3.905 C154.457 3.736 154.152 3.652 153.786 3.652 C153.272 3.652 152.862 3.835 152.554 4.202 C152.253 4.561 152.103 5.067 152.103 5.720 C152.103 6.373 152.253 6.882 152.554 7.249 C152.862 7.616 153.272 7.799 153.786 7.799 C154.512 7.799 154.992 7.480 155.227 6.842 L156.580 6.842 C156.404 7.458 156.074 7.949 155.590 8.316 C155.106 8.675 154.504 8.855 153.786 8.855 C153.206 8.855 152.693 8.727 152.246 8.470 C151.798 8.206 151.446 7.839 151.190 7.370 C150.940 6.893 150.816 6.343 150.816 5.720 Z M157.611 5.698 C157.611 5.089 157.736 4.550 157.986 4.081 C158.242 3.612 158.587 3.249 159.020 2.992 C159.460 2.728 159.943 2.596 160.471 2.596 C160.948 2.596 161.362 2.691 161.714 2.882 C162.074 3.065 162.360 3.296 162.572 3.575 L162.572 2.695 L163.837 2.695 L163.837 8.756 L162.572 8.756 L162.572 7.854 C162.360 8.140 162.070 8.378 161.703 8.569 C161.337 8.760 160.919 8.855 160.449 8.855 C159.929 8.855 159.452 8.723 159.020 8.459 C158.587 8.188 158.242 7.814 157.986 7.337 C157.736 6.853 157.611 6.307 157.611 5.698 Z M162.572 5.720 C162.572 5.302 162.484 4.939 162.309 4.631 C162.140 4.323 161.916 4.088 161.637 3.927 C161.359 3.766 161.058 3.685 160.736 3.685 C160.413 3.685 160.112 3.766 159.833 3.927 C159.555 4.081 159.327 4.312 159.152 4.620 C158.983 4.921 158.898 5.280 158.898 5.698 C158.898 6.116 158.983 6.483 159.152 6.798 C159.327 7.113 159.555 7.355 159.833 7.524 C160.119 7.685 160.420 7.766 160.736 7.766 C161.058 7.766 161.359 7.685 161.637 7.524 C161.916 7.363 162.140 7.128 162.309 6.820 C162.484 6.505 162.572 6.138 162.572 5.720 Z M166.323 1.892 C166.095 1.892 165.905 1.815 165.751 1.661 C165.597 1.507 165.520 1.316 165.520 1.089 C165.520 0.862 165.597 0.671 165.751 0.517 C165.905 0.363 166.095 0.286 166.323 0.286 C166.543 0.286 166.730 0.363 166.884 0.517 C167.038 0.671 167.115 0.862 167.115 1.089 C167.115 1.316 167.038 1.507 166.884 1.661 C166.730 1.815 166.543 1.892 166.323 1.892 Z M166.939 2.695 L166.939 8.756 L165.685 8.756 L165.685 2.695 L166.939 2.695 Z M170.039 3.575 C170.222 3.267 170.464 3.029 170.765 2.860 C171.073 2.684 171.436 2.596 171.854 2.596 L171.854 3.894 L171.535 3.894 C171.044 3.894 170.670 4.019 170.413 4.268 C170.164 4.517 170.039 4.950 170.039 5.566 L170.039 8.756 L168.785 8.756 L168.785 2.695 L170.039 2.695 L170.039 3.575 Z M178.762 5.577 C178.762 5.804 178.747 6.010 178.718 6.193 L174.087 6.193 C174.123 6.677 174.303 7.066 174.626 7.359 C174.948 7.652 175.344 7.799 175.814 7.799 C176.488 7.799 176.965 7.517 177.244 6.952 L178.597 6.952 C178.413 7.509 178.080 7.968 177.596 8.327 C177.119 8.679 176.525 8.855 175.814 8.855 C175.234 8.855 174.714 8.727 174.252 8.470 C173.797 8.206 173.438 7.839 173.174 7.370 C172.917 6.893 172.789 6.343 172.789 5.720 C172.789 5.097 172.913 4.550 173.163 4.081 C173.419 3.604 173.775 3.238 174.230 2.981 C174.692 2.724 175.220 2.596 175.814 2.596 C176.386 2.596 176.895 2.721 177.343 2.970 C177.790 3.219 178.138 3.571 178.388 4.026 C178.637 4.473 178.762 4.990 178.762 5.577 Z M177.453 5.181 C177.445 4.719 177.280 4.349 176.958 4.070 C176.635 3.791 176.235 3.652 175.759 3.652 C175.326 3.652 174.956 3.791 174.648 4.070 C174.340 4.341 174.156 4.712 174.098 5.181 L177.453 5.181 Z"/>
</svg>
